<svg width="64" height="64" viewBox="0 0 64 64" fill="none" xmlns="http://www.w3.org/2000/svg">
<path fill-rule="evenodd" clip-rule="evenodd" d="M26.085 39.4531L43.3706 26.9122C44.2179 26.2956 45.429 26.5358 45.8341 27.4907C47.9575 32.5288 47.0085 38.5811 42.7791 42.7367C38.552 46.8921 32.6674 47.8023 27.2896 45.7267L21.4159 48.3998C29.842 54.0589 40.073 52.6595 46.4669 46.3732C51.539 41.3883 53.1099 34.5937 51.6409 28.4668L51.6539 28.4817C49.524 19.4818 52.1781 15.8835 57.6121 8.52744C57.7421 8.35299 57.8721 8.17864 58 8L50.8479 15.0286V15.0073L26.0785 39.4574M22.5165 42.5006C16.4671 36.8225 17.5115 28.0373 22.6704 22.9694C26.4859 19.2202 32.7389 17.689 38.1966 19.939L44.0575 17.2807C42.8393 16.4011 41.5065 15.6858 40.0946 15.154C36.5452 13.7281 32.6454 13.3643 28.8858 14.1082C25.1262 14.8521 21.6747 16.6707 18.9654 19.3351C13.4771 24.7282 11.7504 33.0221 14.7144 40.0996C16.9286 45.3885 13.2995 49.1294 9.64437 52.9063C8.3465 54.2461 7.0465 55.5837 6 57L22.51 42.507" fill="black"/>
</svg>
