<svg width="64" height="64" viewBox="0 0 64 64" fill="none" xmlns="http://www.w3.org/2000/svg">
<g clip-path="url(#clip0_13170_2494)">
<path d="M31.6134 34.9229C33.4013 34.9152 34.8574 35.3482 35.8283 36.1436C35.9052 36.1935 35.9809 36.2455 36.0558 36.2988C36.5259 36.6401 36.8676 36.9938 37.0802 37.4238C37.2928 37.8539 37.4002 38.3671 37.464 39.2061C37.5065 40.0462 37.5068 41.2065 37.3156 43.3867C37.1243 45.5672 36.7384 48.7366 36.4396 50.7734C36.1408 52.8101 35.9291 53.7185 35.6515 54.3799C35.4659 54.898 35.1509 55.3605 34.7365 55.7227C34.3221 56.0848 33.8216 56.3347 33.2833 56.4492C32.877 56.5346 32.461 56.5705 32.046 56.5557C31.6309 56.5688 31.2156 56.533 30.8087 56.4492C30.3186 56.3417 29.6833 56.1504 29.2081 55.7666C29.0412 55.6359 28.8955 55.4839 28.7638 55.3135C27.8816 54.4846 27.5099 52.9103 26.9435 48.9805C26.0333 42.6603 25.8348 38.7478 26.3624 37.5088C27.0614 35.8661 28.9605 34.9329 31.6134 34.9229ZM31.6398 6.84766C37.8688 6.84766 43.5006 9.25231 47.7892 13.7471C51.0525 17.1391 52.8873 20.7291 53.8263 25.459C54.1464 27.0332 54.1466 31.3262 53.8478 33.0967C52.8517 38.7269 49.765 43.7733 45.2072 47.2256C43.5819 48.4495 39.62 50.587 38.9787 50.5879C38.7436 50.5879 38.7218 50.3451 38.8292 49.3613C39.0205 47.7822 39.2134 47.4545 40.1085 47.0781C41.5389 46.4817 43.9711 44.7489 45.464 43.251C48.0673 40.6491 49.917 37.39 50.8175 33.8213C51.3726 31.6243 51.3089 26.7393 50.6925 24.4775C48.7456 17.282 42.8816 11.6931 35.6935 10.2002C33.6017 9.77261 29.8046 9.77261 27.6915 10.2002C20.4171 11.6931 14.402 17.5598 12.5626 24.9404C12.0725 26.941 12.0725 31.8314 12.5626 33.8369C13.7793 38.7219 16.9383 43.2022 21.0744 45.8691C21.7773 46.3387 22.5119 46.7591 23.2726 47.1279C24.1678 47.5118 24.3604 47.8322 24.5304 49.4102C24.6366 50.3698 24.6156 50.6473 24.382 50.6475C24.2319 50.6475 23.1438 50.1791 21.9923 49.624L21.8908 49.5449C15.2979 46.3016 11.0746 40.8149 9.5392 33.5156C9.15535 31.6314 9.0897 27.1387 9.45228 25.4082C10.4125 20.7683 12.2485 17.14 15.298 13.9316C19.6929 9.29793 25.3469 6.84771 31.6398 6.84766ZM27.1603 14.9092C28.9108 14.2916 32.7861 14.1592 34.9454 14.6279C42.3686 16.2784 47.6391 23.7125 46.6203 31.0869C46.2151 34.0589 45.191 36.4998 43.3781 38.7666C42.4816 39.9119 40.3059 41.835 39.922 41.835C39.8583 41.8329 39.797 41.1083 39.797 40.2256V38.6182L40.9074 37.2949C45.0884 32.2861 44.7897 25.292 40.2247 20.6982C38.4543 18.9116 36.4065 17.8609 33.7609 17.377C32.0542 17.0606 31.6913 17.0614 29.8995 17.3564C27.1789 17.8003 25.072 18.8562 23.2003 20.7041C18.6054 25.239 18.3062 32.2774 22.4884 37.29L23.589 38.6182V40.2432C23.589 41.1397 23.5173 41.8691 23.4298 41.8691C23.3407 41.8678 22.7249 41.4412 22.0646 40.9082L21.9757 40.8691C19.7564 39.0987 17.795 35.9575 16.9835 32.8779C16.4934 31.0175 16.4937 27.4803 17.005 25.626C18.3491 20.6171 22.0401 16.7334 27.1603 14.9092ZM29.3995 22.7861C30.1699 22.3833 31.3208 22.241 32.3615 22.3574C35.1198 22.5548 37.2968 24.8536 37.297 27.6621C37.297 30.6003 34.9148 32.9822 31.9767 32.9824C30.5212 32.9824 29.2019 32.3982 28.2413 31.4512C27.0748 30.5041 26.4512 29.1247 26.4347 27.4375C26.4347 25.4857 27.5228 23.7827 29.3995 22.7861Z" fill="url(#paint0_linear_13170_2494)"/>
</g>
<defs>
<linearGradient id="paint0_linear_13170_2494" x1="31.6411" y1="6.84766" x2="31.6411" y2="56.5589" gradientUnits="userSpaceOnUse">
<stop stop-color="#D772FB"/>
<stop offset="1" stop-color="#822CBE"/>
</linearGradient>
<clipPath id="clip0_13170_2494">
<rect width="64" height="64" fill="white"/>
</clipPath>
</defs>
</svg>
